<svg width="24" height="24" viewBox="0 0 24 24" fill="none" xmlns="http://www.w3.org/2000/svg">
<path d="M16.934 8.96466C16.6663 6.95353 15.6446 5.11919 14.0757 3.83276C12.5069 2.54634 10.5079 1.90389 8.48329 2.03539C6.4587 2.1669 4.55964 3.06255 3.17036 4.54113C1.78107 6.0197 1.0053 7.9708 1 9.99966C1 11.8917 1.657 13.6307 2.756 15.0007C3.564 16.0097 4 17.1247 4 18.3057V21.9997H13L13.001 18.9997H15C15.5304 18.9997 16.0391 18.7889 16.4142 18.4139C16.7893 18.0388 17 17.5301 17 16.9997V14.0707L18.96 13.2307C19.302 13.0847 19.332 12.7367 19.184 12.5037L16.934 8.96366V8.96466ZM3 9.99966C2.99846 8.47488 3.57751 7.00671 4.61947 5.89349C5.66144 4.78027 7.08815 4.10551 8.6097 4.00632C10.1312 3.90713 11.6335 4.39096 12.8112 5.35949C13.9888 6.32802 14.7536 7.70858 14.95 9.22066L15.007 9.66266L16.55 12.0877L15 12.7517V16.9997H11.002L11 19.9997H6V18.3057C6 16.6667 5.409 15.1137 4.315 13.7497C3.46101 12.6867 2.99692 11.3632 3 9.99966ZM21.154 18.1017L19.489 16.9917C20.4766 15.5143 21.0026 13.7767 21 11.9997C21.0031 10.2224 20.4775 8.48435 19.49 7.00666L21.154 5.89666C22.3612 7.70278 23.0038 9.82723 23 11.9997C23 14.2577 22.32 16.3557 21.154 18.1017Z" fill="white"/>
</svg>
